<svg width="24" height="24" viewBox="0 0 24 24" fill="none" xmlns="http://www.w3.org/2000/svg">
<g id="Frame 52">
<path id="Vector" d="M14.6392 3.48017C14.8192 3.48017 14.9992 3.48017 15.3592 3.48017V6.18017C15.1792 6.18017 14.8192 6.18017 14.4592 6.18017C14.0992 6.18017 13.7392 6.18017 13.5592 6.36017C13.3792 6.54017 13.3792 6.72017 13.3792 7.14017C13.3792 7.50017 13.3792 7.74017 13.3792 8.10017H15.3592V10.3802H13.3792V20.2802H10.3192V10.3202H8.69922V8.04017H10.3192V7.26017C10.3192 5.94017 10.4992 4.98017 10.8592 4.56017C11.3992 3.78017 12.4792 3.42017 14.0992 3.42017C14.2792 3.48017 14.4592 3.48017 14.6392 3.48017Z" fill="#E8E8E2"/>
</g>
</svg>
