<svg width="156" height="22" viewBox="0 0 156 22" fill="none" xmlns="http://www.w3.org/2000/svg">
<g id="Food Boutique">
<path d="M0 15.788C1.176 15.644 1.824 15.116 1.824 14.18V4.41202C1.824 3.47602 1.176 2.92402 0 2.80402V1.84402H12.192C12.408 1.84402 12.504 1.91602 12.528 2.08402C12.6 2.80402 12.648 3.52402 13.032 5.27602H12.432C11.592 3.81202 10.872 3.04402 9.456 3.04402H7.416C6.336 3.04402 5.88 3.64402 5.88 4.60402V7.12402C5.88 8.08402 6.336 8.61202 7.416 8.61202H8.376C10.32 8.61202 10.68 8.15602 10.872 7.07602H11.4V11.348H10.872C10.68 10.34 10.32 9.83602 8.376 9.83602H7.416C6.336 9.83602 5.88 10.364 5.88 11.324V14.18C5.88 15.116 6.528 15.644 7.944 15.788V16.748H0V15.788Z" fill="#010101"/>
<path d="M19.0892 16.892C16.1372 16.892 13.1372 15.116 13.1372 11.228C13.1372 7.36402 16.1372 5.70802 19.0172 5.70802C21.9932 5.70802 24.9692 7.48402 24.9692 11.372C24.9692 15.236 21.9932 16.892 19.0892 16.892ZM16.9772 10.172C16.9772 13.148 17.9612 15.788 19.4972 15.788C20.4332 15.788 21.1292 14.852 21.1292 12.38C21.1292 9.42802 20.1932 6.78802 18.6092 6.78802C17.6492 6.78802 16.9772 7.74802 16.9772 10.172Z" fill="#010101"/>
<path d="M31.992 16.892C29.04 16.892 26.04 15.116 26.04 11.228C26.04 7.36402 29.04 5.70802 31.92 5.70802C34.896 5.70802 37.872 7.48402 37.872 11.372C37.872 15.236 34.896 16.892 31.992 16.892ZM29.88 10.172C29.88 13.148 30.864 15.788 32.4 15.788C33.336 15.788 34.032 14.852 34.032 12.38C34.032 9.42802 33.096 6.78802 31.512 6.78802C30.552 6.78802 29.88 7.74802 29.88 10.172Z" fill="#010101"/>
<path d="M43.5268 16.892C41.2708 16.892 38.9428 15.044 38.9428 11.492C38.9428 7.67602 41.5588 5.70802 44.1028 5.70802C46.7428 5.70802 47.4388 7.77202 47.4388 5.34802V3.90802C47.4388 2.78002 46.8148 2.58802 45.9268 2.66002V1.72402L49.8388 1.07602C50.6548 0.956016 51.0388 1.31602 51.0388 2.03602V14.3C51.0388 15.092 51.3508 15.62 52.0468 15.332V15.86C51.7108 16.676 50.8468 16.892 50.1028 16.892C49.2868 16.892 48.2548 16.628 47.9668 15.908C47.7748 15.452 47.5588 15.212 47.1988 15.212C46.7188 15.212 45.7588 16.892 43.5268 16.892ZM42.8068 10.244C42.8068 12.62 43.8628 14.948 45.3988 14.948C46.3348 14.948 47.4388 14.276 47.4388 12.26V11.132C47.4388 8.01202 45.9748 6.78802 44.7748 6.78802C43.5508 6.78802 42.8068 8.30002 42.8068 10.244Z" fill="#010101"/>
<path d="M57.0844 15.788C58.2604 15.644 58.9084 15.116 58.9084 14.18V4.43602C58.9084 3.47602 58.2604 2.92402 57.0844 2.80402V1.84402H64.5004C69.2044 1.84402 71.5324 2.97202 71.5324 5.39602C71.5324 6.76402 70.7404 8.10802 68.0044 8.54002C71.0764 8.97202 72.3964 10.412 72.3964 12.452C72.3964 15.236 69.9244 16.748 66.5644 16.748C64.6444 16.748 60.5644 16.148 57.0844 16.748V15.788ZM62.9644 14.54C62.9644 15.164 63.3484 15.452 64.0444 15.452H64.8844C66.7084 15.452 68.0764 14.756 68.0764 12.428C68.0764 10.172 66.6844 9.18802 64.0444 9.18802C63.4204 9.18802 62.9644 9.66802 62.9644 10.628V14.54ZM62.9644 6.59602C62.9644 7.55602 63.4204 8.03602 64.5004 8.03602H65.1244C66.7804 8.03602 67.2124 6.74002 67.2124 5.63602C67.2124 3.95602 66.3004 3.02002 64.7404 3.02002H64.5004C63.4204 3.02002 62.9644 3.52402 62.9644 4.48402V6.59602Z" fill="#010101"/>
<path d="M79.4314 16.892C76.4794 16.892 73.4794 15.116 73.4794 11.228C73.4794 7.36402 76.4794 5.70802 79.3594 5.70802C82.3354 5.70802 85.3114 7.48402 85.3114 11.372C85.3114 15.236 82.3354 16.892 79.4314 16.892ZM77.3194 10.172C77.3194 13.148 78.3034 15.788 79.8394 15.788C80.7754 15.788 81.4714 14.852 81.4714 12.38C81.4714 9.42802 80.5354 6.78802 78.9514 6.78802C77.9914 6.78802 77.3194 7.74802 77.3194 10.172Z" fill="#010101"/>
<path d="M90.5282 16.892C88.8482 16.892 87.0242 16.196 87.0242 12.428V8.61202C87.0242 7.50802 86.4002 7.31602 85.5122 7.34002V6.40402L89.4242 5.75602C90.2402 5.63602 90.6242 5.99602 90.6242 6.71602V11.852C90.6242 13.532 91.3202 14.732 92.6162 14.732C93.9362 14.732 94.6082 13.532 94.6082 11.852V8.61202C94.6082 7.50802 93.9842 7.31602 93.0962 7.34002V6.40402L96.9842 5.75602C97.8242 5.63602 98.2082 5.99602 98.2082 6.71602V14.3C98.2082 15.092 98.5202 15.62 99.2162 15.332V15.86C98.8802 16.676 98.0162 16.892 97.2002 16.892C95.4722 16.892 94.9922 15.812 94.8722 15.284C94.8002 14.948 94.6082 14.78 94.4402 14.78C94.2722 14.78 94.1522 14.924 94.0322 15.092C93.3602 16.004 92.4242 16.892 90.5282 16.892Z" fill="#010101"/>
<path d="M104.84 16.868C102.632 16.868 101.288 15.644 101.288 13.316V8.06002C101.288 7.22002 101.096 7.05202 100.544 7.05202H99.4641V6.28402C101.456 5.82802 102.416 4.91602 103.232 3.59602C103.424 3.28402 103.592 3.18802 103.904 3.18802H104.336C104.696 3.18802 104.912 3.40402 104.912 3.76402L104.888 5.25202C104.888 5.78002 105.152 5.92402 106.376 5.92402H107.936V7.19602L106.376 7.10002C105.152 7.02802 104.888 7.24402 104.888 8.10802V13.196C104.888 14.516 105.032 15.404 106.208 15.404C106.52 15.404 107 15.356 107.456 15.02C107.768 15.404 107.888 15.74 107.576 16.028C107.024 16.508 106.04 16.868 104.84 16.868Z" fill="#010101"/>
<path d="M108.904 15.812C110.008 15.74 110.416 15.38 110.416 14.084V8.58802C110.416 7.46002 109.792 7.26802 108.928 7.34002V6.40402L112.816 5.75602C113.632 5.63602 114.016 5.99602 114.016 6.71602V14.084C114.016 15.38 114.424 15.74 115.504 15.812V16.748H108.904V15.812ZM109.84 2.73202C109.84 1.58002 110.8 0.692017 111.928 0.692017C113.032 0.692017 113.968 1.58002 113.968 2.73202C113.968 3.88402 113.032 4.77202 111.928 4.77202C110.8 4.77202 109.84 3.88402 109.84 2.73202Z" fill="#010101"/>
<path d="M122.671 20.396C124.039 20.3 124.447 19.94 124.447 18.74V16.172C124.447 15.74 124.231 15.596 124.015 15.596C123.895 15.596 123.775 15.644 123.679 15.74C123.199 16.22 122.167 16.892 120.655 16.892C118.183 16.892 115.903 15.068 115.903 11.54C115.903 7.70002 118.567 5.70802 121.327 5.70802C123.727 5.70802 124.735 7.17202 125.623 7.17202C126.463 7.17202 126.799 5.73202 127.471 5.73202C127.903 5.73202 128.047 5.97202 128.047 6.30802V18.74C128.047 19.94 128.455 20.3 129.535 20.396V21.308H122.671V20.396ZM119.767 10.22C119.767 12.596 120.775 14.948 122.455 14.948C123.367 14.948 124.423 14.276 124.447 11.588C124.423 7.98802 122.935 6.78802 121.735 6.78802C120.439 6.78802 119.767 8.30002 119.767 10.22Z" fill="#010101"/>
<path d="M134.194 16.892C132.514 16.892 130.69 16.196 130.69 12.428V8.61202C130.69 7.50802 130.066 7.31602 129.178 7.34002V6.40402L133.09 5.75602C133.906 5.63602 134.29 5.99602 134.29 6.71602V11.852C134.29 13.532 134.986 14.732 136.282 14.732C137.602 14.732 138.274 13.532 138.274 11.852V8.61202C138.274 7.50802 137.65 7.31602 136.762 7.34002V6.40402L140.65 5.75602C141.49 5.63602 141.874 5.99602 141.874 6.71602V14.3C141.874 15.092 142.186 15.62 142.882 15.332V15.86C142.546 16.676 141.682 16.892 140.866 16.892C139.138 16.892 138.658 15.812 138.538 15.284C138.466 14.948 138.274 14.78 138.106 14.78C137.938 14.78 137.818 14.924 137.698 15.092C137.026 16.004 136.09 16.892 134.194 16.892Z" fill="#010101"/>
<path d="M149.818 16.892C146.818 16.892 143.842 15.164 143.842 11.396C143.842 7.46002 147.058 5.70802 150.034 5.70802C152.578 5.70802 154.642 6.98002 154.642 9.09202C154.642 11.252 152.554 11.372 150.442 11.54L148.57 11.684C148.162 11.708 147.946 11.9 147.946 12.452C147.946 14.228 149.866 15.02 151.45 15.02C152.29 15.02 153.442 14.78 154.306 13.796L155.026 14.444C154.57 15.38 152.626 16.892 149.818 16.892ZM147.778 9.71602C147.778 10.412 147.946 10.772 148.57 10.748L149.434 10.652C151.09 10.484 151.426 10.052 151.426 9.11602C151.426 7.96402 150.946 6.81202 149.698 6.81202C148.138 6.81202 147.778 8.56402 147.778 9.71602Z" fill="#010101"/>
</g>
</svg>
