<svg width="18" height="18" viewBox="0 0 18 18" fill="none" xmlns="http://www.w3.org/2000/svg">
<g id="heroicons-solid:shopping-cart">
<path id="Vector" d="M2.70078 0.900024C2.46209 0.900024 2.23317 0.994846 2.06439 1.16363C1.8956 1.33241 1.80078 1.56133 1.80078 1.80002C1.80078 2.03872 1.8956 2.26764 2.06439 2.43642C2.23317 2.6052 2.46209 2.70002 2.70078 2.70002H3.79878L4.07328 3.79982C4.07601 3.81249 4.07901 3.82509 4.08228 3.83762L5.30448 8.72462L4.50078 9.52742C3.36678 10.6614 4.16958 12.6 5.77338 12.6H13.5008C13.7395 12.6 13.9684 12.5052 14.1372 12.3364C14.306 12.1676 14.4008 11.9387 14.4008 11.7C14.4008 11.4613 14.306 11.2324 14.1372 11.0636C13.9684 10.8948 13.7395 10.8 13.5008 10.8H5.77338L6.67338 9.90002H12.6008C12.7679 9.89993 12.9316 9.85333 13.0738 9.76543C13.2159 9.67752 13.3307 9.5518 13.4054 9.40232L16.1054 4.00232C16.1739 3.86515 16.2063 3.71273 16.1994 3.55953C16.1925 3.40633 16.1466 3.25744 16.066 3.12698C15.9854 2.99652 15.8728 2.88882 15.7388 2.81409C15.6049 2.73937 15.4541 2.70011 15.3008 2.70002H5.65278L5.37378 1.58132C5.32503 1.3867 5.21264 1.21395 5.05447 1.09051C4.8963 0.967076 4.70142 0.90003 4.50078 0.900024H2.70078ZM14.4008 14.85C14.4008 15.2081 14.2585 15.5514 14.0054 15.8046C13.7522 16.0578 13.4088 16.2 13.0508 16.2C12.6927 16.2 12.3494 16.0578 12.0962 15.8046C11.843 15.5514 11.7008 15.2081 11.7008 14.85C11.7008 14.492 11.843 14.1486 12.0962 13.8954C12.3494 13.6423 12.6927 13.5 13.0508 13.5C13.4088 13.5 13.7522 13.6423 14.0054 13.8954C14.2585 14.1486 14.4008 14.492 14.4008 14.85ZM5.85078 16.2C6.20882 16.2 6.5522 16.0578 6.80538 15.8046C7.05855 15.5514 7.20078 15.2081 7.20078 14.85C7.20078 14.492 7.05855 14.1486 6.80538 13.8954C6.5522 13.6423 6.20882 13.5 5.85078 13.5C5.49274 13.5 5.14936 13.6423 4.89619 13.8954C4.64301 14.1486 4.50078 14.492 4.50078 14.85C4.50078 15.2081 4.64301 15.5514 4.89619 15.8046C5.14936 16.0578 5.49274 16.2 5.85078 16.2Z" fill="#E8E8E2"/>
</g>
</svg>
