<svg width="12" height="12" viewBox="0 0 12 12" fill="none" xmlns="http://www.w3.org/2000/svg">
<g id="heroicons-solid:shopping-cart">
<path id="Vector" d="M1.79922 0.600098C1.64009 0.600098 1.48748 0.663312 1.37495 0.775834C1.26243 0.888355 1.19922 1.04097 1.19922 1.2001C1.19922 1.35923 1.26243 1.51184 1.37495 1.62436C1.48748 1.73688 1.64009 1.8001 1.79922 1.8001H2.53122L2.71422 2.5333C2.71604 2.54174 2.71804 2.55014 2.72022 2.5585L3.53502 5.8165L2.99922 6.3517C2.24322 7.1077 2.77842 8.4001 3.84762 8.4001H8.99922C9.15835 8.4001 9.31096 8.33688 9.42348 8.22436C9.536 8.11184 9.59922 7.95923 9.59922 7.8001C9.59922 7.64097 9.536 7.48835 9.42348 7.37583C9.31096 7.26331 9.15835 7.2001 8.99922 7.2001H3.84762L4.44762 6.6001H8.39922C8.51061 6.60004 8.6198 6.56897 8.71453 6.51037C8.80927 6.45176 8.88582 6.36794 8.93562 6.2683L10.7356 2.6683C10.7813 2.57684 10.8029 2.47523 10.7983 2.3731C10.7937 2.27097 10.7631 2.17171 10.7093 2.08473C10.6556 1.99776 10.5805 1.92596 10.4913 1.87614C10.402 1.82633 10.3015 1.80015 10.1992 1.8001H3.76722L3.58122 1.0543C3.54872 0.92455 3.47379 0.809383 3.36834 0.727091C3.2629 0.644799 3.13298 0.600101 2.99922 0.600098H1.79922ZM9.59922 9.9001C9.59922 10.1388 9.5044 10.3677 9.33561 10.5365C9.16683 10.7053 8.93791 10.8001 8.69922 10.8001C8.46052 10.8001 8.2316 10.7053 8.06282 10.5365C7.89404 10.3677 7.79922 10.1388 7.79922 9.9001C7.79922 9.6614 7.89404 9.43248 8.06282 9.2637C8.2316 9.09492 8.46052 9.0001 8.69922 9.0001C8.93791 9.0001 9.16683 9.09492 9.33561 9.2637C9.5044 9.43248 9.59922 9.6614 9.59922 9.9001ZM3.89922 10.8001C4.13791 10.8001 4.36683 10.7053 4.53561 10.5365C4.7044 10.3677 4.79922 10.1388 4.79922 9.9001C4.79922 9.6614 4.7044 9.43248 4.53561 9.2637C4.36683 9.09492 4.13791 9.0001 3.89922 9.0001C3.66052 9.0001 3.4316 9.09492 3.26282 9.2637C3.09404 9.43248 2.99922 9.6614 2.99922 9.9001C2.99922 10.1388 3.09404 10.3677 3.26282 10.5365C3.4316 10.7053 3.66052 10.8001 3.89922 10.8001Z" fill="#6D8434"/>
</g>
</svg>
