<svg width="20" height="20" viewBox="0 0 20 20" fill="none" xmlns="http://www.w3.org/2000/svg">
<g id="tdesign:cabbage">
<path id="Vector" d="M10.93 2.88995C10.6405 2.45006 10.2513 2.08462 9.79415 1.82328C8.53748 1.10245 6.91831 1.22912 5.42415 2.06578C2.64998 3.61995 0.833313 6.54162 0.833313 9.99995C0.833313 14.6166 4.17498 18.3441 8.53915 19.0499C9.01581 19.1266 9.50331 19.1666 9.99998 19.1666C11.2109 19.1709 12.4107 18.9343 13.5294 18.4708C14.6481 18.0072 15.6635 17.3258 16.5165 16.4662C17.3694 15.6066 18.043 14.586 18.498 13.4638C18.9529 12.3415 19.1802 11.14 19.1666 9.92912C19.1475 8.31912 18.5016 6.34328 17.4808 4.76412C16.4641 3.19078 14.9008 1.75745 12.9583 1.77578C12.01 1.77745 11.3625 2.29912 10.93 2.89078V2.88995ZM16.4758 6.34412C16.1278 6.28814 15.7738 6.27889 15.4233 6.31662L14.4566 4.69162L13.025 5.54162L13.7683 6.79162C13.4573 6.93797 13.1602 7.1123 12.8808 7.31245C12.8759 7.29631 12.8709 7.2802 12.8658 7.26412C12.6433 6.58912 12.2133 6.03495 11.64 5.48412L11.6433 5.46745C11.7008 5.19828 11.7925 4.85078 11.93 4.51328C12.2408 3.74995 12.6016 3.44078 12.9633 3.44078H12.9725C14.0483 3.42912 15.1691 4.25495 16.0816 5.66662C16.2233 5.88578 16.355 6.11162 16.4766 6.34328L16.4758 6.34412ZM11.3416 8.84162C11.0666 8.84828 10.7841 8.87912 10.5083 8.93912C10.2834 8.5626 9.98187 8.23752 9.62331 7.98495C8.96498 7.52245 8.06331 7.29328 7.08831 7.65745C6.99898 7.60598 6.90897 7.5557 6.81831 7.50662L9.51248 4.86578L8.34581 3.67578L5.14998 6.80828C4.47498 6.61245 3.84415 6.54245 3.27748 6.62078C3.92959 5.3118 4.96229 4.23059 6.23998 3.51912C7.37665 2.88245 8.35415 2.91745 8.96581 3.26828C9.54915 3.60245 10.0333 4.36078 9.91165 5.71578L9.87415 6.13495L10.1891 6.41412C10.8741 7.01995 11.1591 7.41162 11.2825 7.78578C11.3691 8.04828 11.3975 8.36578 11.3416 8.84162ZM8.99998 9.67912C8.28831 10.2749 7.81081 11.1108 7.53331 12.0141L5.05498 9.29328L3.82248 10.4166L7.22915 14.1566C7.22498 15.1499 7.35248 16.1666 7.53748 17.0858C6.06255 16.5794 4.78339 15.6235 3.87982 14.3525C2.97625 13.0816 2.49369 11.5594 2.49998 9.99995C2.49998 9.13328 2.74081 8.66078 3.02415 8.45412C3.29165 8.25745 3.87915 8.09662 5.08248 8.54078C5.51748 8.70162 6.02081 8.94828 6.59665 9.30662L7.01498 9.56662L7.44498 9.32495C7.96415 9.03328 8.36081 9.13662 8.66498 9.34995C8.79831 9.44328 8.91248 9.55995 8.99998 9.67912ZM10.4708 17.4849L16.5475 10.7874L15.3133 9.66745L12.87 12.3599L12.8758 11.5149L11.2091 11.5033L11.19 14.2116L9.12081 16.4924C8.96415 15.6416 8.87081 14.7274 8.90081 13.8699C8.95415 12.4074 9.53831 11.2058 10.4025 10.7299C10.7608 10.5324 11.3933 10.4549 11.8933 10.5433L12.635 10.6724L12.8391 9.94828C12.9458 9.57078 13.2283 9.16662 13.67 8.80662C14.1181 8.44443 14.6396 8.18398 15.1983 8.04328C15.8658 7.87995 16.435 7.96495 16.81 8.22328C17.1375 8.44828 17.4666 8.90828 17.4975 9.85161V9.86662L17.5 9.99995C17.5084 11.91 16.7843 13.7506 15.4767 15.1429C14.1691 16.5353 12.3776 17.3734 10.4708 17.4849Z" fill="#E8E8E2"/>
</g>
</svg>
