<svg width="16" height="16" viewBox="0 0 16 16" fill="none" xmlns="http://www.w3.org/2000/svg">
<g id="tdesign:cabbage">
<path id="Vector" d="M8.74335 2.31191C8.51174 1.96 8.20043 1.66765 7.83468 1.45858C6.82935 0.88191 5.53402 0.983244 4.33868 1.65258C2.11935 2.89591 0.666016 5.23324 0.666016 7.99991C0.666016 11.6932 3.33935 14.6752 6.83068 15.2399C7.21202 15.3012 7.60202 15.3332 7.99935 15.3332C8.96812 15.3367 9.9279 15.1474 10.8229 14.7766C11.7178 14.4057 12.5301 13.8606 13.2125 13.1729C13.8949 12.4852 14.4338 11.6688 14.7977 10.771C15.1617 9.87317 15.3436 8.91196 15.3327 7.94324C15.3173 6.65524 14.8007 5.07458 13.984 3.81124C13.1707 2.55258 11.92 1.40591 10.366 1.42058C9.60735 1.42191 9.08935 1.83924 8.74335 2.31258V2.31191ZM13.18 5.07524C12.9016 5.03047 12.6184 5.02307 12.338 5.05324L11.5647 3.75324L10.4193 4.43324L11.014 5.43324C10.7652 5.55033 10.5276 5.68979 10.304 5.84991C10.3001 5.837 10.2961 5.82411 10.292 5.81124C10.114 5.27124 9.77002 4.82791 9.31135 4.38724L9.31402 4.37391C9.36002 4.15858 9.43335 3.88058 9.54335 3.61058C9.79202 2.99991 10.0807 2.75258 10.37 2.75258H10.3773C11.238 2.74324 12.1347 3.40391 12.8647 4.53324C12.978 4.70858 13.0833 4.88924 13.1807 5.07458L13.18 5.07524ZM9.07268 7.07324C8.85268 7.07858 8.62668 7.10324 8.40602 7.15124C8.22607 6.85003 7.98486 6.58997 7.69802 6.38791C7.17135 6.01791 6.45002 5.83458 5.67002 6.12591C5.59855 6.08474 5.52654 6.04451 5.45402 6.00524L7.60935 3.89258L6.67602 2.94058L4.11935 5.44658C3.57935 5.28991 3.07468 5.23391 2.62135 5.29658C3.14304 4.24939 3.96919 3.38442 4.99135 2.81524C5.90068 2.30591 6.68268 2.33391 7.17202 2.61458C7.63868 2.88191 8.02602 3.48858 7.92868 4.57258L7.89868 4.90791L8.15068 5.13124C8.69868 5.61591 8.92668 5.92924 9.02535 6.22858C9.09468 6.43858 9.11735 6.69258 9.07268 7.07324ZM7.19935 7.74324C6.63002 8.21991 6.24802 8.88858 6.02602 9.61124L4.04335 7.43458L3.05735 8.33324L5.78268 11.3252C5.77935 12.1199 5.88135 12.9332 6.02935 13.6686C4.84941 13.2635 3.82608 12.4988 3.10322 11.482C2.38036 10.4652 1.99432 9.24745 1.99935 7.99991C1.99935 7.30658 2.19202 6.92858 2.41868 6.76324C2.63268 6.60591 3.10268 6.47724 4.06535 6.83258C4.41335 6.96124 4.81602 7.15858 5.27668 7.44524L5.61135 7.65324L5.95535 7.45991C6.37068 7.22658 6.68802 7.30924 6.93135 7.47991C7.03802 7.55458 7.12935 7.64791 7.19935 7.74324ZM8.37602 13.9879L13.2373 8.62991L12.25 7.73391L10.2953 9.88791L10.3 9.21191L8.96668 9.20258L8.95135 11.3692L7.29602 13.1939C7.17068 12.5132 7.09602 11.7819 7.12002 11.0959C7.16268 9.92591 7.63002 8.96458 8.32135 8.58391C8.60802 8.42591 9.11402 8.36391 9.51402 8.43458L10.1073 8.53791L10.2707 7.95858C10.356 7.65658 10.582 7.33324 10.9353 7.04524C11.2938 6.7555 11.711 6.54713 12.158 6.43458C12.692 6.30391 13.1474 6.37191 13.4473 6.57858C13.7093 6.75858 13.9727 7.12658 13.9973 7.88124V7.89324L13.9993 7.99991C14.006 9.52795 13.4268 11.0004 12.3807 12.1143C11.3347 13.2282 9.90146 13.8987 8.37602 13.9879Z" fill="#E8E8E2"/>
</g>
</svg>
