<svg width="24" height="24" viewBox="0 0 24 24" fill="none" xmlns="http://www.w3.org/2000/svg">
<g id="Frame 60" opacity="0.8">
<path id="Vector" fill-rule="evenodd" clip-rule="evenodd" d="M18.1809 4.49988C17.1609 4.43988 15.0609 4.37988 11.8809 4.37988H11.4609C8.40085 4.37988 6.36088 4.43988 5.34088 4.55988C3.96088 4.67988 3.00085 5.03988 2.46085 5.51988C1.98085 5.93988 1.62087 6.71988 1.50087 7.73988C1.44087 8.39988 1.38086 9.77988 1.38086 11.8799V12.1799C1.38086 14.1599 1.44085 15.5399 1.56085 16.1999C1.74085 17.1599 2.04088 17.8799 2.64088 18.2999C3.24088 18.7799 4.26087 19.0799 5.70087 19.1999C6.72087 19.2599 8.82087 19.3199 12.0009 19.3199H12.4209C15.4809 19.3199 17.5209 19.2599 18.5409 19.1399C19.9209 19.0199 20.8809 18.6599 21.4209 18.1799C21.9009 17.7599 22.2609 16.9799 22.3809 15.9599C22.4409 15.2999 22.5009 13.9199 22.5009 11.8199V11.5199C22.5009 9.53988 22.4409 8.15988 22.3209 7.49988C22.1409 6.53988 21.8409 5.81988 21.2409 5.39988C20.6409 4.91988 19.6209 4.61988 18.1809 4.49988ZM15.8409 11.8799L9.24088 15.8399V7.91988L15.8409 11.8799Z" fill="#E8E8E2"/>
</g>
</svg>
