<?xml version="1.0" encoding="iso-8859-1"?>
<!-- Generator: Adobe Illustrator 19.0.0, SVG Export Plug-In . SVG Version: 6.00 Build 0)  -->
<svg version="1.1" id="Layer_1" xmlns="http://www.w3.org/2000/svg" xmlns:xlink="http://www.w3.org/1999/xlink" x="0px" y="0px"
	 viewBox="0 0 512.001 512.001" style="enable-background:new 0 0 512.001 512.001;" xml:space="preserve">
<polygon style="fill:#298983;" points="256,171.677 210.612,217.066 210.612,249.493 301.388,249.493 301.388,217.066 "/>
<rect x="210.606" y="317.147" style="fill:#62D9C7;" width="90.779" height="55.719"/>
<path d="M309.677,300.562H202.322c-4.578,0-8.29,3.712-8.29,8.29v72.298c0,4.578,3.712,8.29,8.29,8.29h107.356
	c4.579,0,8.29-3.712,8.29-8.29v-72.298C317.967,304.274,314.257,300.562,309.677,300.562z M301.388,372.86h-90.776v-55.719h90.776
	V372.86z"/>
<rect x="210.606" y="439.704" style="fill:#298983;" width="90.779" height="55.719"/>
<path d="M309.677,423.123H202.322c-4.578,0-8.29,3.712-8.29,8.29v72.298c0,4.578,3.712,8.29,8.29,8.29h107.356
	c4.579,0,8.29-3.712,8.29-8.29v-72.298C317.967,426.835,314.257,423.123,309.677,423.123z M301.388,495.421h-90.776v-55.719h90.776
	V495.421z"/>
<rect x="123.559" y="109.944" transform="matrix(-0.7071 -0.7071 0.7071 -0.7071 167.4303 411.5419)" style="fill:#A5F2E5;" width="90.778" height="122.301"/>
<path style="fill:#62D9C7;" d="M339.796,103.651l-83.644-83.644l-64.188,64.188l162.241,162.241l64.188-64.188l-36.591-36.591
	c-3.237-3.237-3.237-8.485,0-11.723l-30.281-30.281C348.283,106.888,343.035,106.888,339.796,103.651z"/>
<path d="M435.979,176.386l-42.453-42.454c-3.237-3.237-8.485-3.237-11.724,0l0,0c-3.237,3.237-3.237,8.487,0,11.723l36.591,36.591
	l-64.188,64.188L191.964,84.195l64.188-64.188l83.644,83.644c3.239,3.237,8.485,3.237,11.724,0l0,0
	c3.237-3.237,3.237-8.487,0-11.723L262.014,2.422c-1.658-1.658-3.842-2.46-6.014-2.421c-2.172-0.04-4.356,0.763-6.014,2.421
	L76.022,176.386c-3.237,3.237-3.237,8.487,0,11.723l75.912,75.912c1.554,1.555,3.663,2.428,5.861,2.428s4.307-0.873,5.861-2.428
	l30.375-30.375v24.138c0,4.578,3.712,8.29,8.29,8.29h107.356c4.579,0,8.29-3.712,8.29-8.29v-24.138l30.375,30.375
	c1.619,1.618,3.742,2.428,5.863,2.428s4.243-0.809,5.863-2.428l75.912-75.912C439.217,184.872,439.217,179.623,435.979,176.386z
	 M210.612,249.493v-32.428L256,171.678l45.387,45.387v32.428H210.612z M180.089,95.767l64.188,64.188l-86.482,86.482l-64.188-64.188
	L180.089,95.767z"/>
<g>
</g>
<g>
</g>
<g>
</g>
<g>
</g>
<g>
</g>
<g>
</g>
<g>
</g>
<g>
</g>
<g>
</g>
<g>
</g>
<g>
</g>
<g>
</g>
<g>
</g>
<g>
</g>
<g>
</g>
</svg>
