<!-- Generated by IcoMoon.io -->
<svg version="1.1" xmlns="http://www.w3.org/2000/svg" width="1024" height="1024" viewBox="0 0 1024 1024">
<title></title>
<g id="icomoon-ignore">
</g>
<path fill="#6d8434" d="M1024 512c0 282.77-229.23 512-512 512s-512-229.23-512-512c0-282.77 229.23-512 512-512s512 229.23 512 512z"></path>
<path fill="#fafafa" d="M862.298 667.6l-7.45 20.173-137.402-50.628 7.45-20.173 11.339 4.178 0.142-0.384c-4.811-7.665-8.757-20.033-3.152-35.21 9.295-25.167 35.779-36.581 68.062-24.684 32.285 11.895 45.005 37.753 35.71 62.92-5.606 15.177-16.263 22.164-25.673 24.59l-0.142 0.384 51.116 18.835zM748.474 595.104c-6.101 16.521 3.782 31.73 25.498 39.733 21.907 8.071 39.12 2.845 45.222-13.676 6.528-17.676-6.139-33.038-25.356-40.119s-38.835-3.615-45.363 14.061z"></path>
<path fill="#fafafa" d="M802.985 720.934c3.512-4.791 10.452-7.328 16.404-2.978s5.461 11.602 1.949 16.391c-3.755 5.12-10.407 7.613-16.36 3.263s-5.748-11.558-1.993-16.676zM795.063 701.952l-12.716 17.341-84.494-61.751 12.716-17.341 84.494 61.751z"></path>
<path fill="#fafafa" d="M698.522 745.684c-17.732 8.762-36.601 18.724-52.519-0.534-12.785-15.471-7.462-36.035 12.145-52.175 26.088-21.477 47.362-18.563 62.242-2.164l-16.128 13.276c-7.965-8.032-17.893-12.327-34.97 1.731-11.542 9.501-11.747 19.219-7.572 24.271 8.351 10.103 18.649 2.953 32.855-3.968 15.287-7.543 34.768-19.335 49.903-1.024 10.959 13.261 7.999 33.469-12.239 50.13-21.978 18.092-42.201 14.845-54.919 1.705l16.128-13.276c6.325 5.403 14.838 9.272 27.803-1.401 9.96-8.201 12.206-16.415 7.509-22.096-6.786-8.209-16.319-1.422-30.239 5.526z"></path>
<path fill="#fafafa" d="M587.226 805.185c4.217 9.815 14.787 19.852 32.239 13.925 19.973-6.784 22.683-26.738 16.329-45.344-6.352-18.606-20.514-32.829-40.682-25.981-17.454 5.927-19.75 20.118-16.754 31.428l-20.361 6.915c-6.258-23.397 5.632-46.252 31.423-55.011 29.67-10.076 56.148 4.724 66.736 35.734s-1.331 58.849-30.807 68.859c-25.791 8.76-48.287-1.985-58.484-23.612l20.361-6.914z"></path>
<path fill="#fafafa" d="M499.434 743.844c32.707 2 51.157 25.902 49.183 58.406s-23.182 53.982-55.888 51.983c-32.707-2-51.157-25.902-49.183-58.406s23.182-53.982 55.888-51.983zM498.365 761.424c-20.442-1.249-32.053 14.251-33.357 35.714-1.316 21.67 8.346 38.265 28.788 39.514s32.039-14.046 33.355-35.715c1.304-21.463-8.344-38.263-28.786-39.513z"></path>
<path fill="#fafafa" d="M344.656 808.791l-19.347-9.387 45.783-94.106 19.348 9.387-5.914 12.155 0.369 0.177c8.559-4.953 21.908-7.581 38.122 0.287 17.505 8.492 26.397 25.327 15.915 46.874l-31.628 65.009-19.533-9.477 28.94-59.484c6.183-12.706 4.782-23.402-8.486-29.839-14.925-7.24-28.896-2.865-35.705 11.131l-27.865 57.274z"></path>
<path fill="#fafafa" d="M250.68 734.614c-12.986-14.49-14.834-33.428 3.041-49.386l53.931-48.145 14.49 16.166-49.348 44.054c-10.542 9.411-13.3 19.835-3.459 30.816 11.071 12.355 25.665 13.602 37.277 3.236l47.514-42.416 14.351 16.014-78.070 69.693-14.351-16.014 10.083-9.001-0.273-0.305c-9.801 1.338-23.158-1.29-35.185-14.711z"></path>
<path fill="#fafafa" d="M206.329 620.027l8.103 17.913 51.729-23.286c10.832-4.876 9.776-10.689 3.289-23.042l16.061-7.229c2.707 3.499 5.207 7.538 7.571 12.762 7.091 15.674 3.876 27.452-16.292 36.531l-53.412 24.044 6.246 13.809-16.061 7.229-6.245-13.809-30.068 13.534-8.946-19.779 30.066-13.534-8.103-17.915 16.061-7.229z"></path>
<path fill="#fafafa" d="M143.808 404.722l4.674-20.99 142.939 31.795-4.675 20.989-11.795-2.623-0.089 0.399c5.796 6.955 11.366 18.685 7.849 34.476-5.83 26.187-30.539 41.042-64.125 33.572s-49.659-31.398-43.829-57.585c3.517-15.792 13.14-24.143 22.139-27.805l0.089-0.399-53.178-11.829zM266.32 461.346c3.828-17.191-8.006-30.944-30.597-35.97-22.789-5.069-39.142 2.413-42.97 19.606-4.096 18.391 10.516 31.921 30.507 36.367 19.992 4.448 38.967-1.613 43.061-20.004z"></path>
<path fill="#fafafa" d="M195.287 343.938c-2.836 5.217-9.373 8.661-15.855 5.147-6.48-3.516-6.965-10.767-4.128-15.985 3.034-5.577 9.293-8.94 15.773-5.425 6.482 3.516 7.245 10.685 4.21 16.263zM205.682 361.689l10.274-18.891 91.996 49.891-10.274 18.889-91.996-49.889z"></path>
<path fill="#fafafa" d="M295.716 305.080c16.433-11.008 33.833-23.356 52.134-6.345 14.701 13.664 12.117 34.748-5.205 53.318-23.052 24.709-44.522 24.607-61.421 10.296l14.251-15.275c8.948 6.921 19.352 9.878 34.439-6.294 10.199-10.933 9.129-20.594 4.33-25.056-9.602-8.924-18.872-0.486-32.051 8.236-14.165 9.481-31.933 23.723-49.335 7.549-12.6-11.711-12.314-32.135 5.569-51.304 19.418-20.816 39.89-20.243 54.217-8.881l-14.249 15.275c-6.979-4.528-15.923-7.25-27.378 5.030-8.801 9.434-9.95 17.872-4.55 22.892 7.799 7.252 16.364-0.727 29.251-9.44z"></path>
<path fill="#fafafa" d="M396.699 231.994c-5.509-9.153-17.341-17.666-33.831-9.429-18.872 9.424-18.852 29.559-10.033 47.131 8.818 17.574 24.779 29.747 43.834 20.229 16.49-8.235 16.841-22.603 12.339-33.403l19.238-9.609c9.373 22.332 0.689 46.583-23.678 58.754-28.032 14.001-56.274 2.925-70.97-26.363s-6.661-58.482 21.188-72.392c24.368-12.17 48.116-4.572 61.152 15.473l-19.238 9.609z"></path>
<path fill="#fafafa" d="M491.93 280.497c-32.683 2.379-54.166-18.85-56.561-51.325-2.393-32.474 15.749-56.59 48.43-58.969s54.166 18.849 56.559 51.323c2.394 32.476-15.747 56.59-48.428 58.97zM490.634 262.931c20.425-1.487 29.858-18.396 28.278-39.842-1.597-21.649-13.392-36.808-33.818-35.319-20.427 1.487-29.873 18.191-28.278 39.842 1.58 21.446 13.392 36.808 33.818 35.319z"></path>
<path fill="#fafafa" d="M637.45 195.372l20.42 6.738-32.847 99.364-20.422-6.738 4.243-12.832-0.389-0.13c-7.822 6.047-20.702 10.424-37.816 4.777-18.476-6.095-29.529-21.601-22.007-44.353l22.692-68.64 20.615 6.801-20.762 62.807c-4.436 13.418-1.625 23.834 12.378 28.454 15.754 5.197 29.017-0.995 33.903-15.773l19.992-60.474z"></path>
<path fill="#fafafa" d="M740.615 256.137c14.773 12.66 19.091 31.194 3.466 49.362l-47.138 54.813-16.485-14.128 43.134-50.152c9.213-10.714 10.58-21.412-0.618-31.007-12.595-10.795-27.226-10.115-37.374 1.684l-41.532 48.29-16.328-13.993 68.239-79.345 16.328 13.993-8.813 10.249 0.311 0.266c9.54-2.613 23.124-1.761 36.809 9.967z"></path>
<path fill="#fafafa" d="M799.493 362.955l-10.441-16.66-48.128 30.034c-10.078 6.287-8.248 11.906-0.157 23.272l-14.944 9.324c-3.152-3.101-6.175-6.767-9.219-11.626-9.136-14.577-7.537-26.68 11.228-38.39l49.691-31.008-8.049-12.841 14.942-9.324 8.049 12.841 27.974-17.456 11.529 18.394-27.974 17.456 10.441 16.659-14.942 9.325z"></path>
<path fill="#fafafa" d="M561.766 472.178c-89.6 19.91-110.507 81.336-131.214 132.806l18.816 6.571 9.457-22.897c4.779 1.691 9.757 2.987 13.341 2.987 109.512 0 139.378-169.245 139.378-169.245-9.957 19.912-79.645 22.4-129.423 32.355-49.777 9.957-69.688 52.267-69.688 72.178s17.422 37.333 17.422 37.333c32.357-92.088 131.912-92.088 131.912-92.088z"></path>
</svg>
