<!-- Generated by IcoMoon.io -->
<svg version="1.1" xmlns="http://www.w3.org/2000/svg" width="1024" height="1024" viewBox="0 0 1024 1024">
<title></title>
<g id="icomoon-ignore">
</g>
<path fill="#fdc152" d="M1024 512c0 282.77-229.23 512-512 512s-512-229.23-512-512c0-282.77 229.23-512 512-512s512 229.23 512 512z"></path>
<path fill="#010101" d="M805.562 549.815c3.324-26.002 23.379-39.46 49.22-36.156 25.84 3.303 41.864 21.374 38.539 47.376-3.324 26.003-23.379 39.461-49.219 36.157s-41.865-21.374-38.54-47.377zM819.539 551.602c-2.078 16.252 9.681 26.344 26.745 28.526 17.227 2.203 30.983-4.627 33.061-20.879s-9.518-26.323-26.745-28.526c-17.064-2.181-30.983 4.628-33.061 20.879z"></path>
<path fill="#010101" d="M868.37 656.507c-0.984 2.78-1.848 4.733-2.978 6.941l-15.29-5.412 0.11-0.309c8.147-14.67 2.072-30.898-14.763-36.857l-40.312-14.267 5.74-16.218 78.925 27.935-5.74 16.218-14.828-5.248-0.11 0.308c8.409 7.669 12.909 16.561 9.246 26.91z"></path>
<path fill="#010101" d="M826.221 730.218l-9.074 14.615-66.256-41.137c-20.462-12.705-21.816-30.711-9.286-50.894 12.705-20.461 30.423-25.081 43.344-19.18l-9.161 14.755c-7.128-2.498-14.972-0.425-22.145 11.128-7.605 12.249-5.927 21.97 6.879 29.92l8.629 5.359 0.173-0.279c-2.955-7.042-4.183-16.868 2.817-28.143 11.062-17.817 31.747-23.487 54.157-9.573 22.55 14.001 26.501 34.969 15.439 52.785-7 11.275-16.351 14.533-23.696 15.18l-0.172 0.279 8.351 5.186zM782.384 676.579c-7.346 11.831-3.959 23.77 11.074 33.104s27.235 7.075 34.582-4.756c7.951-12.806 2.408-25.311-10.814-33.522-13.084-8.123-26.889-7.632-34.841 5.174z"></path>
<path fill="#010101" d="M750.681 781.624c4.176 4.394 9.949 5.236 18.263-2.664 9.976-9.481 10.722-16.068 3.867-24.471l12.114-11.513c10.467 12.203 11.677 28.459-6.613 45.84-13.42 12.754-28.249 17.128-43.599 0.977l-27.428-28.859c-4.063-4.275-7.158-5.629-11.575-0.526l-5.643-5.937c1.834-3.779 3.628-5.934 6.003-8.192 6.651-6.32 11.996-6.88 18.827-2.071l0.238-0.225c-1.279-8.956 2.11-19.185 11.492-28.101 12.351-11.739 26.724-11.836 36.431-1.623 12.641 13.301 6.734 26.826-5.645 44.242-7.689 10.698-12.261 17.304-6.731 23.123zM733.263 728.335c-10.332 9.819-12.604 21.699-3.237 31.556l8.692 9.144c0.664-3.343 4.179-9.396 8.87-16.115 8.187-12.076 9.879-19.334 4.009-25.51-5.304-5.582-11.564-5.509-18.334 0.925z"></path>
<path fill="#010101" d="M690.634 851.884c-13.656 7.468-28.761 5.457-37.959-11.362l-27.747-50.744 15.237-8.332 25.39 46.432c5.424 9.918 13.052 13.964 23.401 8.305 11.644-6.367 15.267-17.499 9.293-28.424l-24.446-44.707 15.094-8.253 40.167 73.457-15.094 8.254-5.188-9.488-0.288 0.158c-0.737 7.873-5.211 17.789-17.862 24.706z"></path>
<path fill="#010101" d="M637.824 886.985c4.519-1.466 10.206 0.133 12.027 5.744 1.821 5.609-1.893 10.087-6.413 11.555-4.83 1.568-10.311 0.074-12.131-5.537s1.687-10.194 6.518-11.762zM641.578 870.953l-16.362 5.31-25.845-79.633 16.364-5.31 25.844 79.633z"></path>
<path fill="#010101" d="M538.557 861.933c1.731 8.367 8.403 17.92 23.029 16.050 16.739-2.14 22.062-17.356 20.067-32.957s-10.811-29.010-27.714-26.848c-14.626 1.87-18.701 12.631-18.167 21.978l-17.064 2.181c-1.152-19.343 11.829-35.373 33.444-38.136 24.866-3.18 43.24 12.64 46.564 38.644 3.325 26.002-10.479 45.937-35.182 49.095-21.615 2.763-37.519-9.243-42.042-27.825l17.064-2.181z"></path>
<path fill="#010101" d="M372.564 887.392c10.489 3.788 14.897 3.962 17.727-5.109l2.733-8.759-14.702-4.588 4.197-13.45 14.702 4.588 20.744-66.47 16.578 5.173-20.743 66.471 11.418 3.562-4.197 13.45-11.418-3.562-3.172 10.166c-5.272 16.891-14.321 20.589-27.459 16.489-4.066-1.27-7.517-2.861-10.606-4.512l4.197-13.45z"></path>
<path fill="#010101" d="M371.318 770.232c22.954 12.662 28.085 36.262 15.502 59.073-12.583 22.81-35.283 31.058-58.236 18.395-22.954-12.662-28.085-36.262-15.502-59.073s35.282-31.058 58.236-18.395zM364.512 782.569c-14.346-7.913-28.058-0.695-36.367 14.368-8.389 15.206-7.101 30.512 7.245 38.426s27.979 0.839 36.367-14.368c8.309-15.063 7.101-30.512-7.245-38.426z"></path>
<path fill="#010101" d="M310.441 725.582c19.002 18.059 17.994 42.19 0.047 61.072-17.946 18.884-41.994 21.118-60.996 3.059s-17.994-42.19-0.047-61.073c17.946-18.883 41.994-21.117 60.996-3.058zM300.734 735.795c-11.876-11.287-26.968-7.774-38.82 4.696-11.963 12.589-14.592 27.721-2.716 39.008s26.855 7.892 38.819-4.696c11.852-12.47 14.593-27.722 2.717-39.008z"></path>
<path fill="#010101" d="M149.897 711.32l-8.859-14.747 100.42-60.324 8.859 14.747-8.286 4.978 0.169 0.282c7.194 0.839 16.889 4.571 23.554 15.666 11.053 18.398 4.911 40.627-18.685 54.801s-46.105 9.157-57.157-9.243c-6.665-11.095-5.686-21.239-2.487-28.322l-0.169-0.281-37.359 22.442zM252.157 676.649c-7.256-12.079-21.7-13.532-37.57-3.999-16.011 9.618-21.371 22.967-14.115 35.046 7.762 12.921 23.693 12.716 37.737 4.279 14.045-8.437 21.709-22.406 13.947-35.327z"></path>
<path fill="#010101" d="M219.16 524.007c1.012 26.195-16.548 42.778-42.579 43.782-26.031 1.006-44.816-14.173-45.828-40.368s16.548-42.778 42.579-43.782c26.031-1.006 44.817 14.173 45.828 40.368zM205.081 524.551c-0.633-16.372-13.895-24.386-31.086-23.722-17.354 0.67-29.795 9.677-29.162 26.049s13.731 24.392 31.085 23.722c17.19-0.664 29.795-9.677 29.164-26.049z"></path>
<path fill="#010101" d="M139.793 427.523c0.519-2.903 1.056-4.97 1.81-7.332l15.967 2.856-0.058 0.323c-5.655 15.798 2.976 30.823 20.555 33.968l42.095 7.529-3.029 16.935-82.415-14.742 3.029-16.935 15.483 2.77 0.057-0.323c-9.543-6.201-15.428-14.244-13.494-25.050z"></path>
<path fill="#010101" d="M169.169 348.318l6.582-15.894 72.053 29.842c22.252 9.216 26.51 26.763 17.419 48.713-9.216 22.25-25.949 29.685-39.656 25.957l6.645-16.045c7.439 1.308 14.843-2.010 20.047-14.574 5.516-13.32 2.284-22.64-11.643-28.408l-9.385-3.887-0.125 0.302c4.059 6.47 6.864 15.966 1.786 28.228-8.025 19.375-27.516 28.327-51.886 18.233-24.522-10.157-31.824-30.205-23.799-49.581 5.078-12.26 13.777-16.992 20.919-18.822l0.125-0.303-9.082-3.762zM221.128 394.134c5.329-12.867 0.049-24.097-16.298-30.868s-28.023-2.562-33.352 10.305c-5.768 13.926 1.731 25.367 16.111 31.323 14.228 5.893 27.771 3.167 33.539-10.759z"></path>
<path fill="#010101" d="M235.381 285.197c-4.823-3.673-10.656-3.584-17.604 5.541-8.338 10.949-8.026 17.571 0.081 24.774l-10.124 13.296c-12.278-10.379-16.061-26.234-0.776-46.308 11.216-14.729 25.159-21.411 42.886-7.912l31.675 24.12c4.693 3.573 7.964 4.415 11.512-1.325l6.518 4.962c-1.209 4.022-2.636 6.436-4.62 9.043-5.559 7.3-10.747 8.704-18.257 5.045l-0.199 0.26c2.69 8.637 0.974 19.276-6.867 29.573-10.323 13.557-24.497 15.944-35.707 7.408-14.599-11.117-10.924-25.41-1.478-44.577 5.886-11.786 9.347-19.036 2.959-23.899zM261.069 335.029c8.635-11.341 8.986-23.43-1.833-31.668l-10.037-7.643c-0.123 3.408-2.629 9.943-6.189 17.323-6.158 13.226-6.671 20.661 0.108 25.822 6.126 4.665 12.294 3.596 17.952-3.834z"></path>
<path fill="#010101" d="M282.265 206.777c12.244-9.609 27.474-10.106 39.308 4.975l35.705 45.498-13.662 10.721-32.671-41.632c-6.979-8.893-15.167-11.632-24.447-4.349-10.441 8.193-12.187 19.768-4.499 29.564l31.457 40.086-13.533 10.62-51.686-65.863 13.533-10.621 6.675 8.507 0.258-0.203c-0.566-7.887 2.219-18.402 13.562-27.304z"></path>
<path fill="#010101" d="M329.41 162.859c-4.218 2.187-10.090 1.54-12.804-3.697s0.217-10.263 4.435-12.449c4.51-2.338 10.16-1.76 12.875 3.476s0.004 10.332-4.506 12.669zM328.33 179.289l15.273-7.917 38.529 74.33-15.273 7.917-38.529-74.33z"></path>
<path fill="#010101" d="M431.506 171.239c-3.074-7.973-11.216-16.308-25.341-12.076-16.165 4.845-18.932 20.725-14.417 35.792 4.515 15.066 15.402 26.855 31.725 21.964 14.125-4.232 16.388-15.516 14.335-24.65l16.479-4.938c4.295 18.896-5.896 36.829-26.769 43.085-24.013 7.196-44.723-5.412-52.249-30.523-7.525-25.111 2.839-47.031 26.695-54.18 20.873-6.255 38.525 2.993 46.022 20.588l-16.479 4.939z"></path>
<path fill="#010101" d="M590.448 119.023c-10.967-2.026-15.344-1.48-16.657 7.932l-1.269 9.087 15.254 2.129-1.948 13.955-15.254-2.129-9.626 68.963-17.2-2.4 9.626-68.963-11.846-1.654 1.948-13.955 11.846 1.654 1.473-10.548c2.445-17.525 10.77-22.649 24.401-20.746 4.219 0.589 7.883 1.596 11.201 2.721l-1.948 13.955z"></path>
<path fill="#010101" d="M611.079 234.265c-24.712-8.747-33.625-31.193-24.933-55.752 8.692-24.558 29.742-36.399 54.454-27.652s33.625 31.193 24.933 55.752c-8.692 24.558-29.742 36.399-54.454 27.652zM615.78 220.981c15.446 5.467 27.795-3.892 33.536-20.109 5.795-16.372 2.026-31.262-13.418-36.728-15.445-5.467-27.74 3.738-33.535 20.109-5.74 16.217-2.028 31.262 13.417 36.728z"></path>
<path fill="#010101" d="M677.441 267.555c-21.694-14.715-24.638-38.687-10.016-60.246s37.983-27.69 59.679-12.975c21.694 14.715 24.638 38.687 10.016 60.246s-37.983 27.689-59.679 12.975zM685.35 255.894c13.56 9.197 27.875 3.267 37.533-10.97 9.748-14.373 9.87-29.732-3.688-38.928-13.56-9.197-27.784-3.403-37.533 10.97-9.656 14.238-9.87 29.732 3.688 38.928z"></path>
<path fill="#010101" d="M839.918 256.972l11.106 13.138-89.463 75.628-11.106-13.138 7.382-6.24-0.211-0.251c-7.236 0.324-17.404-1.807-25.76-11.692-13.857-16.39-11.354-39.316 9.667-57.086s44.043-16.422 57.899-0.031c8.357 9.885 9.015 20.054 6.992 27.558l0.211 0.25 33.283-28.135zM744.53 307.573c9.097 10.76 23.587 9.882 37.725-2.071 14.264-12.059 17.417-26.094 8.32-36.855-9.731-11.511-25.424-8.757-37.936 1.821-12.512 10.577-17.84 25.593-8.109 37.105z"></path>
<path fill="#010101" d="M563.2 471.040c-92.16 20.48-113.664 83.661-134.963 136.602l19.354 6.758 9.728-23.552c4.915 1.741 10.035 3.072 13.722 3.072 112.64 0 143.36-174.080 143.36-174.080-10.24 20.48-81.92 23.040-133.12 33.28s-71.68 53.76-71.68 74.24c0 20.48 17.92 38.4 17.92 38.4 33.28-94.72 135.68-94.72 135.68-94.72z"></path>
</svg>
