<svg xmlns="http://www.w3.org/2000/svg" aria-hidden="true" style="position:absolute;width:0;height:0;overflow:hidden">
  <defs>
<symbol id="icon-organic-food" viewBox="0 0 32 32">
<path fill="#fdc152" style="fill: var(--color1, #fdc152)" d="M32 16c0 8.837-7.163 16-16 16s-16-7.163-16-16c0-8.837 7.163-16 16-16s16 7.163 16 16z"></path>
<path fill="#010101" style="fill: var(--color2, #010101)" d="M25.173 17.182c0.104-0.813 0.731-1.233 1.538-1.13s1.308 0.668 1.204 1.48c-0.104 0.813-0.731 1.233-1.538 1.13s-1.308-0.668-1.204-1.481zM25.61 17.238c-0.065 0.508 0.303 0.823 0.836 0.891 0.538 0.069 0.968-0.145 1.033-0.652s-0.297-0.823-0.836-0.891c-0.533-0.068-0.968 0.145-1.033 0.652z"></path>
<path fill="#010101" style="fill: var(--color2, #010101)" d="M27.137 20.516c-0.031 0.087-0.058 0.148-0.093 0.217l-0.478-0.169 0.003-0.010c0.255-0.458 0.065-0.966-0.461-1.152l-1.26-0.446 0.179-0.507 2.466 0.873-0.179 0.507-0.463-0.164-0.003 0.010c0.263 0.24 0.403 0.518 0.289 0.841z"></path>
<path fill="#010101" style="fill: var(--color2, #010101)" d="M25.819 22.819l-0.284 0.457-2.070-1.286c-0.639-0.397-0.682-0.96-0.29-1.59 0.397-0.639 0.951-0.784 1.355-0.599l-0.286 0.461c-0.223-0.078-0.468-0.013-0.692 0.348-0.238 0.383-0.185 0.687 0.215 0.935l0.27 0.167 0.005-0.009c-0.092-0.22-0.131-0.527 0.088-0.879 0.346-0.557 0.992-0.734 1.692-0.299 0.705 0.438 0.828 1.093 0.482 1.65-0.219 0.352-0.511 0.454-0.741 0.474l-0.005 0.009 0.261 0.162zM24.449 21.143c-0.23 0.37-0.124 0.743 0.346 1.035s0.851 0.221 1.081-0.149c0.248-0.4 0.075-0.791-0.338-1.048-0.409-0.254-0.84-0.238-1.089 0.162z"></path>
<path fill="#010101" style="fill: var(--color2, #010101)" d="M23.458 24.426c0.131 0.137 0.311 0.164 0.571-0.083 0.312-0.296 0.335-0.502 0.121-0.765l0.379-0.36c0.327 0.381 0.365 0.889-0.207 1.433-0.419 0.399-0.883 0.535-1.363 0.031l-0.857-0.902c-0.127-0.134-0.224-0.176-0.362-0.016l-0.176-0.186c0.057-0.118 0.113-0.185 0.188-0.256 0.208-0.198 0.375-0.215 0.588-0.065l0.007-0.007c-0.040-0.28 0.066-0.6 0.359-0.878 0.386-0.367 0.835-0.37 1.138-0.051 0.395 0.416 0.21 0.838-0.176 1.383-0.24 0.334-0.383 0.541-0.21 0.723zM22.914 22.76c-0.323 0.307-0.394 0.678-0.101 0.986l0.272 0.286c0.021-0.104 0.131-0.294 0.277-0.504 0.256-0.377 0.309-0.604 0.125-0.797-0.166-0.174-0.361-0.172-0.573 0.029z"></path>
<path fill="#010101" style="fill: var(--color2, #010101)" d="M21.582 26.621c-0.427 0.233-0.899 0.171-1.186-0.355l-0.867-1.586 0.476-0.26 0.793 1.451c0.169 0.31 0.408 0.436 0.731 0.26 0.364-0.199 0.477-0.547 0.29-0.888l-0.764-1.397 0.472-0.258 1.255 2.296-0.472 0.258-0.162-0.296-0.009 0.005c-0.023 0.246-0.163 0.556-0.558 0.772z"></path>
<path fill="#010101" style="fill: var(--color2, #010101)" d="M19.932 27.718c0.141-0.046 0.319 0.004 0.376 0.18s-0.059 0.315-0.2 0.361c-0.151 0.049-0.322 0.002-0.379-0.173s0.053-0.319 0.204-0.368zM20.049 27.217l-0.511 0.166-0.808-2.489 0.511-0.166 0.808 2.489z"></path>
<path fill="#010101" style="fill: var(--color2, #010101)" d="M16.83 26.935c0.054 0.261 0.263 0.56 0.72 0.502 0.523-0.067 0.689-0.542 0.627-1.030s-0.338-0.907-0.866-0.839c-0.457 0.058-0.584 0.395-0.568 0.687l-0.533 0.068c-0.036-0.604 0.37-1.105 1.045-1.192 0.777-0.099 1.351 0.395 1.455 1.208s-0.327 1.436-1.099 1.534c-0.675 0.086-1.172-0.289-1.314-0.87l0.533-0.068z"></path>
<path fill="#010101" style="fill: var(--color2, #010101)" d="M11.642 27.731c0.328 0.118 0.466 0.124 0.554-0.16l0.085-0.274-0.459-0.143 0.131-0.42 0.459 0.143 0.648-2.077 0.518 0.162-0.648 2.077 0.357 0.111-0.131 0.42-0.357-0.111-0.099 0.318c-0.165 0.528-0.448 0.643-0.858 0.515-0.127-0.040-0.235-0.089-0.331-0.141l0.131-0.42z"></path>
<path fill="#010101" style="fill: var(--color2, #010101)" d="M11.604 24.070c0.717 0.396 0.878 1.133 0.484 1.846s-1.103 0.971-1.82 0.575c-0.717-0.396-0.878-1.133-0.484-1.846s1.103-0.971 1.82-0.575zM11.391 24.455c-0.448-0.247-0.877-0.022-1.136 0.449-0.262 0.475-0.222 0.954 0.226 1.201s0.874 0.026 1.136-0.449c0.26-0.471 0.222-0.954-0.226-1.201z"></path>
<path fill="#010101" style="fill: var(--color2, #010101)" d="M9.701 22.674c0.594 0.564 0.562 1.318 0.001 1.909s-1.312 0.66-1.906 0.096c-0.594-0.564-0.562-1.318-0.001-1.909s1.312-0.66 1.906-0.096zM9.398 22.994c-0.371-0.353-0.843-0.243-1.213 0.147-0.374 0.393-0.456 0.866-0.085 1.219s0.839 0.247 1.213-0.147c0.37-0.39 0.456-0.866 0.085-1.219z"></path>
<path fill="#010101" style="fill: var(--color2, #010101)" d="M4.684 22.229l-0.277-0.461 3.138-1.885 0.277 0.461-0.259 0.156 0.005 0.009c0.225 0.026 0.528 0.143 0.736 0.49 0.345 0.575 0.153 1.27-0.584 1.713s-1.441 0.286-1.786-0.289c-0.208-0.347-0.178-0.664-0.078-0.885l-0.005-0.009-1.168 0.701zM7.88 21.145c-0.227-0.377-0.678-0.423-1.174-0.125-0.5 0.301-0.668 0.718-0.441 1.095 0.243 0.404 0.74 0.397 1.179 0.134s0.678-0.7 0.436-1.104z"></path>
<path fill="#010101" style="fill: var(--color2, #010101)" d="M6.849 16.375c0.032 0.819-0.517 1.337-1.331 1.368s-1.401-0.443-1.432-1.262c-0.032-0.819 0.517-1.337 1.331-1.368s1.401 0.443 1.432 1.261zM6.409 16.392c-0.020-0.512-0.434-0.762-0.971-0.741-0.542 0.021-0.931 0.302-0.911 0.814s0.429 0.762 0.971 0.741c0.537-0.021 0.931-0.302 0.911-0.814z"></path>
<path fill="#010101" style="fill: var(--color2, #010101)" d="M4.368 13.36c0.016-0.091 0.033-0.155 0.057-0.229l0.499 0.089-0.002 0.010c-0.177 0.494 0.093 0.963 0.642 1.062l1.315 0.235-0.095 0.529-2.575-0.461 0.095-0.529 0.484 0.087 0.002-0.010c-0.298-0.194-0.482-0.445-0.422-0.783z"></path>
<path fill="#010101" style="fill: var(--color2, #010101)" d="M5.287 10.885l0.206-0.497 2.252 0.933c0.695 0.288 0.828 0.836 0.544 1.522-0.288 0.695-0.811 0.928-1.239 0.811l0.208-0.501c0.232 0.041 0.464-0.063 0.626-0.455 0.172-0.416 0.071-0.708-0.364-0.888l-0.293-0.121-0.004 0.009c0.127 0.202 0.215 0.499 0.056 0.882-0.251 0.605-0.86 0.885-1.621 0.57-0.766-0.317-0.995-0.944-0.744-1.549 0.159-0.383 0.431-0.531 0.654-0.588l0.004-0.009-0.284-0.118zM6.91 12.317c0.167-0.402 0.002-0.753-0.509-0.965s-0.876-0.080-1.042 0.322c-0.18 0.435 0.054 0.793 0.503 0.979 0.445 0.184 0.868 0.099 1.048-0.336z"></path>
<path fill="#010101" style="fill: var(--color2, #010101)" d="M7.356 8.912c-0.151-0.115-0.333-0.112-0.55 0.173-0.261 0.342-0.251 0.549 0.003 0.774l-0.316 0.415c-0.384-0.324-0.502-0.82-0.024-1.447 0.351-0.46 0.786-0.669 1.34-0.247l0.99 0.754c0.147 0.112 0.249 0.138 0.36-0.041l0.204 0.155c-0.038 0.126-0.082 0.201-0.144 0.283-0.174 0.228-0.336 0.272-0.571 0.158l-0.006 0.008c0.084 0.27 0.030 0.602-0.215 0.924-0.323 0.424-0.766 0.498-1.116 0.232-0.456-0.347-0.341-0.794-0.046-1.393 0.184-0.368 0.292-0.595 0.093-0.747zM8.158 10.47c0.27-0.354 0.281-0.732-0.057-0.99l-0.314-0.239c-0.004 0.107-0.082 0.311-0.193 0.541-0.192 0.413-0.208 0.646 0.003 0.807 0.191 0.146 0.384 0.112 0.561-0.12z"></path>
<path fill="#010101" style="fill: var(--color2, #010101)" d="M8.82 6.462c0.383-0.3 0.859-0.316 1.228 0.155l1.116 1.422-0.427 0.335-1.021-1.301c-0.218-0.278-0.474-0.364-0.764-0.136-0.326 0.256-0.381 0.618-0.141 0.924l0.983 1.253-0.423 0.332-1.615-2.058 0.423-0.332 0.209 0.266 0.008-0.006c-0.018-0.246 0.069-0.575 0.424-0.853z"></path>
<path fill="#010101" style="fill: var(--color2, #010101)" d="M10.294 5.089c-0.132 0.068-0.315 0.048-0.4-0.116s0.007-0.321 0.139-0.389c0.141-0.073 0.318-0.055 0.402 0.109s0 0.323-0.141 0.396zM10.26 5.603l0.477-0.247 1.204 2.323-0.477 0.247-1.204-2.323z"></path>
<path fill="#010101" style="fill: var(--color2, #010101)" d="M13.485 5.351c-0.096-0.249-0.35-0.51-0.792-0.377-0.505 0.151-0.592 0.648-0.451 1.119s0.481 0.839 0.991 0.686c0.441-0.132 0.512-0.485 0.448-0.77l0.515-0.154c0.134 0.59-0.184 1.151-0.837 1.346-0.75 0.225-1.398-0.169-1.633-0.954s0.089-1.47 0.834-1.693c0.652-0.195 1.204 0.094 1.438 0.643l-0.515 0.154z"></path>
<path fill="#010101" style="fill: var(--color2, #010101)" d="M18.451 3.719c-0.343-0.063-0.48-0.046-0.521 0.248l-0.040 0.284 0.477 0.067-0.061 0.436-0.477-0.067-0.301 2.155-0.538-0.075 0.301-2.155-0.37-0.052 0.061-0.436 0.37 0.052 0.046-0.33c0.076-0.548 0.337-0.708 0.763-0.648 0.132 0.018 0.246 0.050 0.35 0.085l-0.061 0.436z"></path>
<path fill="#010101" style="fill: var(--color2, #010101)" d="M19.096 7.321c-0.772-0.273-1.051-0.975-0.779-1.742s0.929-1.137 1.702-0.864c0.772 0.273 1.051 0.975 0.779 1.742s-0.929 1.137-1.702 0.864zM19.243 6.906c0.483 0.171 0.869-0.122 1.048-0.628 0.181-0.512 0.063-0.977-0.419-1.148s-0.867 0.117-1.048 0.628c-0.179 0.507-0.063 0.977 0.419 1.148z"></path>
<path fill="#010101" style="fill: var(--color2, #010101)" d="M21.17 8.361c-0.678-0.46-0.77-1.209-0.313-1.883s1.187-0.865 1.865-0.405c0.678 0.46 0.77 1.209 0.313 1.883s-1.187 0.865-1.865 0.405zM21.417 7.997c0.424 0.287 0.871 0.102 1.173-0.343 0.305-0.449 0.308-0.929-0.115-1.216s-0.868-0.106-1.173 0.343c-0.302 0.445-0.308 0.929 0.115 1.216z"></path>
<path fill="#010101" style="fill: var(--color2, #010101)" d="M26.248 8.030l0.347 0.411-2.796 2.363-0.347-0.411 0.231-0.195-0.007-0.008c-0.226 0.010-0.544-0.056-0.805-0.365-0.433-0.512-0.355-1.229 0.302-1.784s1.376-0.513 1.809-0.001c0.261 0.309 0.282 0.627 0.218 0.861l0.007 0.008 1.040-0.879zM23.267 9.612c0.284 0.336 0.737 0.309 1.179-0.065 0.446-0.377 0.544-0.815 0.26-1.152-0.304-0.36-0.794-0.274-1.186 0.057s-0.558 0.8-0.253 1.16z"></path>
<path fill="#010101" style="fill: var(--color2, #010101)" d="M17.6 14.72c-2.88 0.64-3.552 2.614-4.218 4.269l0.605 0.211 0.304-0.736c0.154 0.054 0.314 0.096 0.429 0.096 3.52 0 4.48-5.44 4.48-5.44-0.32 0.64-2.56 0.72-4.16 1.040s-2.24 1.68-2.24 2.32c0 0.64 0.56 1.2 0.56 1.2 1.040-2.96 4.24-2.96 4.24-2.96z"></path>
</symbol>
  </defs>
</svg>
